<?xml version="1.0" standalone="no"?>
<!DOCTYPE svg PUBLIC "-//W3C//DTD SVG 20010904//EN"
 "http://www.w3.org/TR/2001/REC-SVG-20010904/DTD/svg10.dtd">
<svg version="1.0" xmlns="http://www.w3.org/2000/svg"
 width="500.000000pt" height="500.000000pt" viewBox="0 0 500.000000 500.000000"
 preserveAspectRatio="xMidYMid meet">

<g transform="translate(0.000000,500.000000) scale(0.100000,-0.100000)"
fill="#000000" stroke="none">
<path d="M2345 4993 c-369 -30 -667 -111 -968 -264 -966 -489 -1504 -1526
-1347 -2596 54 -372 187 -715 396 -1024 108 -162 175 -242 318 -384 383 -380
856 -616 1406 -702 161 -25 536 -25 705 0 421 63 813 228 1162 488 124 93 376
345 470 470 321 429 491 903 510 1429 28 785 -310 1530 -923 2031 -192 157
-472 316 -709 404 -308 113 -718 173 -1020 148z m1226 -1503 c19 -6 46 -22 60
-36 23 -24 24 -32 23 -142 -2 -167 -107 -871 -239 -1597 -55 -306 -73 -362
-131 -422 l-43 -45 -73 3 c-55 3 -87 11 -124 30 -90 47 -828 550 -871 594 -66
68 -69 110 -10 187 18 24 156 159 307 300 396 371 520 498 520 532 0 32 -23
43 -60 29 -36 -14 -226 -137 -700 -456 -212 -143 -410 -272 -440 -288 -144
-73 -234 -65 -600 51 -166 53 -209 74 -236 115 -16 24 -16 29 -1 60 9 19 34
46 56 60 21 15 205 98 408 186 1316 572 1818 779 2008 829 82 22 98 23 146 10z"/>
</g>
</svg>
